<svg xmlns="http://www.w3.org/2000/svg" xmlns:xlink="http://www.w3.org/1999/xlink" width="168" zoomAndPan="magnify" viewBox="0 0 126 36.000001" height="48" preserveAspectRatio="xMidYMid meet" version="1.0"><defs><g/><clipPath id="e3724333dc"><path d="M 97.261719 3.996094 L 124.296875 3.996094 L 124.296875 31.03125 L 97.261719 31.03125 Z M 97.261719 3.996094 " clip-rule="nonzero"/></clipPath><clipPath id="244ba2e70b"><path d="M 110.78125 3.996094 C 103.3125 3.996094 97.261719 10.046875 97.261719 17.511719 C 97.261719 24.980469 103.3125 31.03125 110.78125 31.03125 C 118.246094 31.03125 124.296875 24.980469 124.296875 17.511719 C 124.296875 10.046875 118.246094 3.996094 110.78125 3.996094 Z M 110.78125 3.996094 " clip-rule="nonzero"/></clipPath></defs><g fill="#ef982d" fill-opacity="1"><g transform="translate(1.702701, 23.624256)"><g><path d="M 6.980469 0.238281 C 10.191406 0.238281 12.152344 -1.535156 12.511719 -4.234375 L 9.832031 -4.234375 C 9.574219 -2.695312 8.449219 -1.964844 6.914062 -1.964844 C 4.523438 -1.964844 3.226562 -3.804688 3.226562 -6.519531 C 3.226562 -9.21875 4.523438 -11.0625 6.914062 -11.0625 C 8.449219 -11.0625 9.59375 -10.328125 9.832031 -8.945312 L 12.511719 -8.945312 C 12.152344 -11.503906 10.191406 -13.261719 6.980469 -13.261719 C 2.664062 -13.261719 0.664062 -10.121094 0.664062 -6.519531 C 0.664062 -2.917969 2.664062 0.238281 6.980469 0.238281 Z M 6.980469 0.238281 "/></g></g></g><g fill="#ef982d" fill-opacity="1"><g transform="translate(14.794035, 23.624256)"><g><path d="M 3.363281 0 L 3.363281 -4.882812 C 3.363281 -6.144531 3.515625 -6.84375 3.910156 -7.304688 C 4.214844 -7.679688 4.710938 -7.886719 5.375 -7.886719 C 5.921875 -7.886719 6.316406 -7.75 6.589844 -7.460938 C 6.914062 -7.101562 7.050781 -6.519531 7.050781 -5.546875 L 7.050781 0 L 9.355469 0 L 9.355469 -5.511719 C 9.355469 -6.46875 9.355469 -7.339844 8.945312 -8.175781 C 8.535156 -9.0625 7.699219 -9.78125 5.957031 -9.78125 C 4.933594 -9.78125 4.128906 -9.4375 3.363281 -8.363281 L 3.363281 -13.023438 L 1.058594 -13.023438 L 1.058594 0 Z M 3.363281 0 "/></g></g></g><g fill="#ef982d" fill-opacity="1"><g transform="translate(25.120312, 23.624256)"><g><path d="M 3.804688 0.1875 C 4.625 0.1875 5.375 0.0507812 5.972656 -0.339844 C 6.332031 -0.5625 6.605469 -0.871094 6.84375 -1.296875 L 6.84375 0 L 9.148438 0 L 9.148438 -4.984375 C 9.148438 -6.316406 9.148438 -7.816406 8.023438 -8.808594 C 7.304688 -9.472656 6.230469 -9.78125 5.121094 -9.78125 C 3.226562 -9.78125 1.367188 -8.757812 1.023438 -6.519531 L 3.3125 -6.519531 C 3.480469 -7.425781 4.234375 -7.972656 5.105469 -7.972656 C 5.648438 -7.972656 6.09375 -7.816406 6.382812 -7.511719 C 6.675781 -7.203125 6.828125 -6.742188 6.84375 -6.160156 L 3.996094 -5.632812 C 3.191406 -5.480469 2.371094 -5.242188 1.757812 -4.8125 C 1.09375 -4.351562 0.664062 -3.652344 0.664062 -2.628906 C 0.664062 -0.800781 1.996094 0.1875 3.804688 0.1875 Z M 4.371094 -1.621094 C 3.566406 -1.621094 2.96875 -1.996094 2.96875 -2.714844 C 2.96875 -3.039062 3.089844 -3.277344 3.277344 -3.464844 C 3.550781 -3.722656 3.941406 -3.890625 4.609375 -4.011719 L 6.894531 -4.472656 C 6.863281 -3.210938 6.605469 -2.390625 5.597656 -1.894531 C 5.222656 -1.707031 4.796875 -1.621094 4.371094 -1.621094 Z M 4.371094 -1.621094 "/></g></g></g><g fill="#ef982d" fill-opacity="1"><g transform="translate(35.20764, 23.624256)"><g><path d="M 5.941406 0 L 5.941406 -1.910156 L 4.898438 -1.910156 C 4.183594 -1.910156 4.113281 -2.304688 4.113281 -2.800781 L 4.113281 -7.730469 L 5.957031 -7.730469 L 5.957031 -9.574219 L 4.113281 -9.574219 L 4.113281 -13.023438 L 1.808594 -13.023438 L 1.808594 -9.574219 L 0.394531 -9.574219 L 0.394531 -7.730469 L 1.808594 -7.730469 L 1.808594 -2.097656 C 1.808594 -0.613281 2.628906 0 4.046875 0 Z M 5.941406 0 "/></g></g></g><g fill="#ef982d" fill-opacity="1"><g transform="translate(41.744773, 23.624256)"><g><path d="M 8.859375 -5.648438 C 10.121094 -6.246094 10.90625 -7.476562 10.90625 -9.183594 C 10.90625 -11.878906 9.21875 -13.023438 6.777344 -13.023438 L 1.160156 -13.023438 L 1.160156 0 L 3.617188 0 L 3.617188 -5.207031 L 6.519531 -5.207031 L 8.585938 0 L 11.199219 0 Z M 6.433594 -10.820312 C 7.730469 -10.820312 8.464844 -10.207031 8.464844 -9.097656 C 8.464844 -7.953125 7.75 -7.355469 6.433594 -7.355469 L 3.617188 -7.355469 L 3.617188 -10.820312 Z M 6.433594 -10.820312 "/></g></g></g><g fill="#ef982d" fill-opacity="1"><g transform="translate(53.504782, 23.624256)"><g><path d="M 2.203125 -10.632812 C 2.96875 -10.632812 3.617188 -11.144531 3.617188 -11.949219 C 3.617188 -12.714844 2.96875 -13.261719 2.203125 -13.261719 C 1.417969 -13.261719 0.785156 -12.714844 0.785156 -11.949219 C 0.785156 -11.144531 1.417969 -10.632812 2.203125 -10.632812 Z M 3.34375 0 L 3.34375 -9.574219 L 1.042969 -9.574219 L 1.042969 0 Z M 3.34375 0 "/></g></g></g><g fill="#ef982d" fill-opacity="1"><g transform="translate(57.908385, 23.624256)"><g><path d="M 5.445312 3.636719 C 7.972656 3.636719 9.953125 2.679688 9.953125 -0.613281 L 9.953125 -9.574219 L 7.648438 -9.574219 L 7.648438 -8.363281 C 6.878906 -9.4375 6.058594 -9.78125 4.914062 -9.78125 C 2.425781 -9.78125 0.71875 -7.730469 0.71875 -4.863281 C 0.71875 -2.066406 2.425781 -0.015625 4.914062 -0.015625 C 6.042969 -0.015625 6.863281 -0.324219 7.648438 -1.417969 L 7.648438 -0.0664062 C 7.648438 1.042969 7 1.84375 5.429688 1.84375 C 4.300781 1.84375 3.617188 1.449219 3.328125 0.511719 L 1.007812 0.511719 C 1.417969 2.988281 3.480469 3.636719 5.445312 3.636719 Z M 5.460938 -1.996094 C 3.976562 -1.996094 3.039062 -3.261719 3.039062 -4.898438 C 3.039062 -6.539062 3.976562 -7.800781 5.460938 -7.800781 C 6.914062 -7.800781 7.9375 -6.570312 7.9375 -4.898438 C 7.9375 -3.226562 6.914062 -1.996094 5.460938 -1.996094 Z M 5.460938 -1.996094 "/></g></g></g><g fill="#ef982d" fill-opacity="1"><g transform="translate(68.900325, 23.624256)"><g><path d="M 3.363281 0 L 3.363281 -4.882812 C 3.363281 -6.144531 3.515625 -6.84375 3.910156 -7.304688 C 4.214844 -7.679688 4.710938 -7.886719 5.375 -7.886719 C 5.921875 -7.886719 6.316406 -7.75 6.589844 -7.460938 C 6.914062 -7.101562 7.050781 -6.519531 7.050781 -5.546875 L 7.050781 0 L 9.355469 0 L 9.355469 -5.511719 C 9.355469 -6.46875 9.355469 -7.339844 8.945312 -8.175781 C 8.535156 -9.0625 7.699219 -9.78125 5.957031 -9.78125 C 4.933594 -9.78125 4.128906 -9.4375 3.363281 -8.363281 L 3.363281 -13.023438 L 1.058594 -13.023438 L 1.058594 0 Z M 3.363281 0 "/></g></g></g><g fill="#ef982d" fill-opacity="1"><g transform="translate(79.226602, 23.624256)"><g><path d="M 5.941406 0 L 5.941406 -1.910156 L 4.898438 -1.910156 C 4.183594 -1.910156 4.113281 -2.304688 4.113281 -2.800781 L 4.113281 -7.730469 L 5.957031 -7.730469 L 5.957031 -9.574219 L 4.113281 -9.574219 L 4.113281 -13.023438 L 1.808594 -13.023438 L 1.808594 -9.574219 L 0.394531 -9.574219 L 0.394531 -7.730469 L 1.808594 -7.730469 L 1.808594 -2.097656 C 1.808594 -0.613281 2.628906 0 4.046875 0 Z M 5.941406 0 "/></g></g></g><g fill="#ef982d" fill-opacity="1"><g transform="translate(85.763735, 23.624256)"><g><path d="M 5.1875 0.1875 C 7.664062 0.1875 9.132812 -1.042969 9.132812 -2.902344 C 9.132812 -5.105469 7.082031 -5.480469 5.394531 -5.804688 C 4.214844 -6.027344 3.191406 -6.214844 3.191406 -7 C 3.191406 -7.597656 3.753906 -7.972656 4.675781 -7.972656 C 5.617188 -7.972656 6.433594 -7.5625 6.707031 -6.519531 L 8.875 -6.519531 C 8.535156 -8.601562 6.929688 -9.78125 4.695312 -9.78125 C 2.714844 -9.78125 0.988281 -8.910156 0.988281 -6.914062 C 0.988281 -4.78125 2.9375 -4.371094 4.589844 -4.046875 C 5.804688 -3.804688 6.863281 -3.585938 6.863281 -2.730469 C 6.863281 -2.015625 6.144531 -1.621094 5.171875 -1.621094 C 3.996094 -1.621094 3.15625 -2.183594 2.867188 -3.226562 L 0.597656 -3.226562 C 0.921875 -0.820312 3.003906 0.1875 5.1875 0.1875 Z M 5.1875 0.1875 "/></g></g></g><g clip-path="url(#e3724333dc)"><g clip-path="url(#244ba2e70b)"><path fill="#ef982d" d="M 97.261719 3.996094 L 124.296875 3.996094 L 124.296875 31.03125 L 97.261719 31.03125 Z M 97.261719 3.996094 " fill-opacity="1" fill-rule="nonzero"/></g></g><g fill="#ffffff" fill-opacity="1"><g transform="translate(102.030347, 23.606542)"><g><path d="M 2.695312 0 L 3.566406 -2.679688 L 8.535156 -2.679688 L 9.421875 0 L 12 0 L 7.40625 -13.023438 L 4.710938 -13.023438 L 0.121094 0 Z M 6.058594 -10.34375 L 7.851562 -4.832031 L 4.265625 -4.832031 Z M 6.058594 -10.34375 "/></g></g></g><g fill="#ffffff" fill-opacity="1"><g transform="translate(114.148113, 23.606542)"><g><path d="M 3.617188 0 L 3.617188 -13.023438 L 1.160156 -13.023438 L 1.160156 0 Z M 3.617188 0 "/></g></g></g></svg>